<?xml version="1.0" encoding="UTF-8" standalone="no"?>
<!DOCTYPE svg PUBLIC "-//W3C//DTD SVG 1.1//EN" "http://www.w3.org/Graphics/SVG/1.1/DTD/svg11.dtd">
<svg width="100%" height="100%" viewBox="0 0 3334 2084" version="1.1" xmlns="http://www.w3.org/2000/svg" xmlns:xlink="http://www.w3.org/1999/xlink" xml:space="preserve" xmlns:serif="http://www.serif.com/" style="fill-rule:evenodd;clip-rule:evenodd;stroke-linejoin:round;stroke-miterlimit:2;">
    <g id="Layer-1" serif:id="Layer 1" transform="matrix(4.16667,0,0,4.16667,0,0)">
        <g transform="matrix(1,0,0,1,344.408,153.04)">
            <path d="M0,116.114C1.457,117.772 2.987,119.363 4.585,120.885C11.154,110.683 18.44,97.473 26.468,81.307C35.183,63.758 40.574,48.961 44.059,36.783C39.28,21.2 37.648,5.702 38.944,-4.771C6.102,2.785 -18.398,32.179 -18.398,67.316C-18.398,85.754 -11.638,102.602 -0.482,115.558C0.834,114.783 2.199,114.011 3.638,113.246C2.394,114.175 1.186,115.137 0,116.114" style="fill:rgb(221,78,38);fill-rule:nonzero;"/>
        </g>
        <g transform="matrix(1,0,0,1,414.67,223.556)">
            <path d="M0,10.259C-10.3,1.395 -17.984,-11.52 -23.217,-25.095C-26.091,-13.943 -30.901,-1.202 -39.055,14.505C-43.08,22.26 -46.864,29.176 -50.428,35.354C-30.853,26.709 -9.011,20.885 10.453,17.877C6.741,15.556 3.203,13.015 0,10.259" style="fill:rgb(237,27,45);fill-rule:nonzero;"/>
        </g>
        <g transform="matrix(1,0,0,1,395.937,240.58)">
            <path d="M0,-94.099C-2.842,-93.945 -5.636,-93.617 -8.384,-93.152C-9.536,-85.314 -8.376,-73.142 -5.004,-60.185C-1.873,-73.421 -1.051,-82.725 0.08,-88.291C-0.183,-76.077 -0.033,-64.768 -2.429,-51.468C2.837,-35.59 11.305,-19.752 22.818,-10.3C27.434,-6.624 32.542,-3.269 37.794,-0.311C53.278,-2.107 66.632,-1.962 75.199,0.116C77.044,-6.349 78.053,-13.167 78.053,-20.225C78.053,-61.088 44.927,-94.215 4.063,-94.215C3,-94.215 1.946,-94.179 0.894,-94.135C0.824,-93.3 0.713,-92.401 0.517,-91.37C0.411,-92.38 0.221,-93.266 0,-94.099" style="fill:rgb(39,114,185);fill-rule:nonzero;"/>
        </g>
        <g transform="matrix(1,0,0,1,364.051,280.068)">
            <path d="M0,-20.825C-4.035,-13.847 -7.78,-7.843 -11.25,-2.735C1.559,7.888 18.007,14.278 35.949,14.278C63.659,14.278 87.796,-0.965 100.474,-23.514C91.082,-24.879 78.675,-28.931 67.164,-35.103C44.855,-32.864 19.242,-27.763 0,-20.825" style="fill:rgb(221,78,38);fill-rule:nonzero;"/>
        </g>
        <g transform="matrix(1,0,0,1,441.152,252.374)">
            <path d="M0,-8.231C9.022,-3.865 17.986,-0.75 25.197,0.734C26.52,-1.942 27.683,-4.71 28.68,-7.558C21.607,-8.796 11.522,-8.965 0,-8.231" style="fill:rgb(39,114,185);fill-rule:nonzero;"/>
        </g>
        <g transform="matrix(1,0,0,1,338.988,322.262)">
            <path d="M0,-4.672L0,-4.736C0,-6.992 -1.557,-8.613 -3.528,-8.613C-5.467,-8.613 -7.024,-6.992 -7.024,-4.736L-7.024,-4.672C-7.024,-2.384 -5.467,-0.762 -3.528,-0.762C-1.557,-0.762 0,-2.352 0,-4.672M-12.936,-13.285L-6.897,-13.285L-6.897,-10.997C-5.721,-12.427 -4.259,-13.667 -1.684,-13.667C2.416,-13.667 5.944,-10.266 5.944,-4.767L5.944,-4.704C5.944,0.89 2.416,4.291 -1.653,4.291C-4.259,4.291 -5.784,3.115 -6.897,1.812L-6.897,8.995L-12.936,8.995L-12.936,-13.285Z" style="fill:white;fill-rule:nonzero;stroke:white;stroke-width:0.24px;"/>
        </g>
        <g transform="matrix(1,0,0,1,347.534,325.758)">
            <path d="M0,-16.781L6.039,-16.781L6.039,-13.317C7.024,-15.669 8.613,-17.195 11.474,-17.068L11.474,-10.71L10.965,-10.71C7.819,-10.71 6.039,-8.899 6.039,-4.926L6.039,0.414L0,0.414L0,-16.781Z" style="fill:white;fill-rule:nonzero;stroke:white;stroke-width:0.24px;"/>
        </g>
        <g transform="matrix(1,0,0,1,0,129.142)">
            <path d="M361.262,179.835L367.301,179.835L367.301,197.03L361.262,197.03L361.262,179.835ZM361.135,173.828L367.428,173.828L367.428,178.278L361.135,178.278L361.135,173.828Z" style="fill:white;fill-rule:nonzero;stroke:white;stroke-width:0.24px;"/>
        </g>
        <g transform="matrix(1,0,0,1,370.668,325.79)">
            <path d="M0,-16.813L6.039,-16.813L6.039,-14.398C7.151,-15.828 8.74,-17.195 11.188,-17.195C14.843,-17.195 17.036,-14.779 17.036,-10.87L17.036,0.382L10.997,0.382L10.997,-8.931C10.997,-10.806 10.012,-11.823 8.582,-11.823C7.12,-11.823 6.039,-10.806 6.039,-8.931L6.039,0.382L0,0.382L0,-16.813Z" style="fill:white;fill-rule:nonzero;stroke:white;stroke-width:0.24px;"/>
        </g>
        <g transform="matrix(1,0,0,1,391.865,310.312)">
            <path d="M0,10.52L0,3.528L-2.034,3.528L-2.034,-1.335L0,-1.335L0,-5.69L6.039,-5.69L6.039,-1.335L10.043,-1.335L10.043,3.528L6.039,3.528L6.039,9.344C6.039,10.552 6.579,11.061 7.692,11.061C8.486,11.061 9.249,10.838 9.98,10.488L9.98,15.225C8.899,15.828 7.469,16.21 5.784,16.21C2.161,16.21 0,14.62 0,10.52" style="fill:white;fill-rule:nonzero;stroke:white;stroke-width:0.24px;"/>
        </g>
        <g transform="matrix(1,0,0,1,0,132.478)">
            <rect x="404.162" y="181.107" width="10.425" height="5.308" style="fill:white;stroke:white;stroke-width:0.24px;"/>
        </g>
        <g transform="matrix(1,0,0,1,416.777,317.558)">
            <path d="M0,0.096L0,0.032C0,-4.831 3.782,-8.931 9.218,-8.931C12.746,-8.931 15.098,-7.405 16.56,-5.085L12.46,-2.034C11.633,-3.178 10.712,-3.845 9.25,-3.845C7.311,-3.845 5.88,-2.129 5.88,-0.031L5.88,0.032C5.88,2.257 7.279,3.942 9.313,3.942C10.744,3.942 11.665,3.274 12.619,2.162L16.656,5.086C15.066,7.438 12.778,9.027 8.995,9.027C3.814,9.027 0,4.959 0,0.096" style="fill:white;fill-rule:nonzero;stroke:white;stroke-width:0.24px;"/>
        </g>
        <g transform="matrix(1,0,0,1,434.255,311.169)">
            <path d="M0,12.841L2.257,9.186C4.227,10.489 6.389,11.156 8.169,11.156C9.218,11.156 9.694,10.839 9.694,10.235L9.694,10.171C9.694,9.503 8.74,9.217 6.929,8.709C3.528,7.819 0.827,6.675 0.827,3.21L0.827,3.147C0.827,-0.509 3.751,-2.543 7.724,-2.543C10.235,-2.543 12.841,-1.811 14.811,-0.54L12.745,3.274C10.966,2.289 9.027,1.684 7.66,1.684C6.738,1.684 6.261,2.035 6.261,2.511L6.261,2.575C6.261,3.242 7.247,3.56 9.059,4.101C12.459,5.054 15.161,6.23 15.161,9.567L15.161,9.63C15.161,13.413 12.332,15.384 8.137,15.384C5.245,15.384 2.384,14.557 0,12.841" style="fill:white;fill-rule:nonzero;stroke:white;stroke-width:0.24px;"/>
        </g>
        <g transform="matrix(1,0,0,1,450.272,311.169)">
            <path d="M0,12.841L2.257,9.186C4.227,10.489 6.389,11.156 8.169,11.156C9.218,11.156 9.694,10.839 9.694,10.235L9.694,10.171C9.694,9.503 8.74,9.217 6.929,8.709C3.528,7.819 0.827,6.675 0.827,3.21L0.827,3.147C0.827,-0.509 3.751,-2.543 7.724,-2.543C10.234,-2.543 12.841,-1.811 14.811,-0.54L12.745,3.274C10.966,2.289 9.027,1.684 7.66,1.684C6.738,1.684 6.261,2.035 6.261,2.511L6.261,2.575C6.261,3.242 7.247,3.56 9.059,4.101C12.459,5.054 15.161,6.23 15.161,9.567L15.161,9.63C15.161,13.413 12.332,15.384 8.137,15.384C5.245,15.384 2.384,14.557 0,12.841" style="fill:white;fill-rule:nonzero;stroke:white;stroke-width:0.24px;"/>
        </g>
        <g transform="matrix(1,0,0,1,0,146.146)">
            <rect x="467.655" y="173.828" width="6.293" height="6.198" style="fill:white;stroke:white;stroke-width:0.24px;"/>
        </g>
        <g transform="matrix(1,0,0,1,380.375,352.808)">
            <path d="M0,-16.781L6.039,-16.781L6.039,-13.317C7.024,-15.669 8.613,-17.195 11.474,-17.068L11.474,-10.71L10.965,-10.71C7.819,-10.71 6.039,-8.899 6.039,-4.926L6.039,0.414L0,0.414L0,-16.781Z" style="fill:white;fill-rule:nonzero;stroke:white;stroke-width:0.24px;"/>
        </g>
        <g transform="matrix(1,0,0,1,406.086,344.575)">
            <path d="M0,0.128L0,0.064C0,-2.033 -1.526,-3.813 -3.655,-3.813C-5.848,-3.813 -7.246,-2.065 -7.246,0.001L-7.246,0.064C-7.246,2.162 -5.721,3.942 -3.592,3.942C-1.399,3.942 0,2.194 0,0.128M-13.127,0.128L-13.127,0.064C-13.127,-4.831 -9.122,-8.931 -3.592,-8.931C1.907,-8.931 5.88,-4.894 5.88,0.001L5.88,0.064C5.88,4.959 1.875,9.059 -3.655,9.059C-9.154,9.059 -13.127,5.022 -13.127,0.128" style="fill:white;fill-rule:nonzero;stroke:white;stroke-width:0.24px;"/>
        </g>
        <g transform="matrix(1,0,0,1,413.806,344.607)">
            <path d="M0,0.096L0,0.032C0,-4.831 3.782,-8.931 9.218,-8.931C12.746,-8.931 15.098,-7.405 16.56,-5.085L12.46,-2.034C11.633,-3.178 10.712,-3.845 9.25,-3.845C7.311,-3.845 5.88,-2.129 5.88,-0.031L5.88,0.032C5.88,2.257 7.279,3.942 9.313,3.942C10.744,3.942 11.665,3.274 12.619,2.162L16.656,5.086C15.066,7.438 12.778,9.027 8.995,9.027C3.814,9.027 0,4.959 0,0.096" style="fill:white;fill-rule:nonzero;stroke:white;stroke-width:0.24px;"/>
        </g>
        <g transform="matrix(1,0,0,1,432.587,353.221)">
            <path d="M0,-23.202L6.039,-23.202L6.039,-11.442L10.711,-17.195L17.544,-17.195L11.569,-10.298L17.704,0L11.061,0L7.597,-5.848L6.039,-4.036L6.039,0L0,0L0,-23.202Z" style="fill:white;fill-rule:nonzero;stroke:white;stroke-width:0.24px;"/>
        </g>
        <g transform="matrix(1,0,0,1,450.287,338.219)">
            <path d="M0,12.841L2.257,9.186C4.227,10.489 6.389,11.156 8.169,11.156C9.218,11.156 9.694,10.839 9.694,10.235L9.694,10.171C9.694,9.503 8.74,9.217 6.929,8.709C3.528,7.819 0.827,6.675 0.827,3.21L0.827,3.147C0.827,-0.509 3.751,-2.543 7.724,-2.543C10.235,-2.543 12.841,-1.811 14.811,-0.54L12.745,3.274C10.966,2.289 9.027,1.684 7.66,1.684C6.738,1.684 6.261,2.035 6.261,2.511L6.261,2.575C6.261,3.242 7.247,3.56 9.059,4.101C12.459,5.054 15.161,6.23 15.161,9.567L15.161,9.63C15.161,13.413 12.332,15.384 8.137,15.384C5.245,15.384 2.384,14.557 0,12.841" style="fill:white;fill-rule:nonzero;stroke:white;stroke-width:0.24px;"/>
        </g>
    </g>
</svg>
